PathFileType	4	(X/Y/Z)	C:/Users/opensim2020/Desktop/walking_exp_matlab/subject01_walking04_straight_02.trc	
DataRate	CameraRate	NumFrames	NumMarkers	Units	OrigDataRate	OrigDataStartFrame	OrigNumFrames	
100.00	100.00	8	43	mm	100.00	1483	261	
Frame#	Time	LFHD			RFHD			LBHD			RBHD			C7			T10			CLAV			STRN			RBAK			LSHO			LUPA			LELB			LFRM			LWRA			LWRB			LFIN			RSHO			RUPA			RELB			RFRM			RWRA			RWRB			RFIN			LASI			RASI			LPSI			RPSI			LTHI			LKNE			LTIB			LANK			LHEE			LTOE			RTHI			RKNE			RTIB			RANK			RHEE			RTOE			*39			*40			*41			*42			
		X1	Y1	Z1	X2	Y2	Z2	X3	Y3	Z3	X4	Y4	Z4	X5	Y5	Z5	X6	Y6	Z6	X7	Y7	Z7	X8	Y8	Z8	X9	Y9	Z9	X10	Y10	Z10	X11	Y11	Z11	X12	Y12	Z12	X13	Y13	Z13	X14	Y14	Z14	X15	Y15	Z15	X16	Y16	Z16	X17	Y17	Z17	X18	Y18	Z18	X19	Y19	Z19	X20	Y20	Z20	X21	Y21	Z21	X22	Y22	Z22	X23	Y23	Z23	X24	Y24	Z24	X25	Y25	Z25	X26	Y26	Z26	X27	Y27	Z27	X28	Y28	Z28	X29	Y29	Z29	X30	Y30	Z30	X31	Y31	Z31	X32	Y32	Z32	X33	Y33	Z33	X34	Y34	Z34	X35	Y35	Z35	X36	Y36	Z36	X37	Y37	Z37	X38	Y38	Z38	X39	Y39	Z39	X40	Y40	Z40	X41	Y41	Z41	X42	Y42	Z42	X43	Y43	Z43	

66	0.650	1471.05994	1146.26013	1658.43555	1359.36316	1122.92627	1664.88818	1451.55652	1261.48999	1612.73547	1333.63733	1240.99084	1619.03455	1409.91870	1302.34497	1424.27271	1397.24353	1341.57397	1131.58667	1412.96484	1160.55884	1352.78882	1412.73059	1118.54004	1198.50513	1326.64331	1358.41687	1232.89795	1573.57910	1225.24561	1377.83386	1649.42822	1282.46436	1195.15503	1641.04541	1321.68115	1050.99292	1660.49243	1310.06433	936.92804	1631.75952	1265.75977	806.08466	1662.15820	1318.19263	814.87689	1657.61255	1292.90417	731.31140	1260.28455	1217.93591	1385.37329	1146.72876	1264.03040	1190.46924	1132.75403	1253.99402	1063.38293	1110.25977	1178.89453	963.63434	1145.13672	1058.91248	893.89270	1101.08337	1092.42493	876.91754	1110.12036	1025.90894	825.08618	1498.42285	1163.91736	923.43286	1279.80151	1173.91003	919.52582	1459.98718	1353.88574	938.73163	1315.99268	1358.47913	947.08057	1563.53003	1125.22449	608.86792	1549.48621	1099.92944	480.00763	1560.05762	1106.87988	291.45914	1519.69214	1064.62439	74.67347	1463.14209	1098.12415	40.28075	1530.27063	916.02777	60.09077	1237.09070	1302.65698	600.03833	1263.61450	1338.71594	442.05844	1261.00146	1456.40662	309.60028	1307.40845	1566.59717	133.06618	1355.01807	1627.20862	120.95395	1319.81458	1455.79736	42.36139	1380.95569	1136.87341	1698.36157	-3102.05737	1973.09875	1023.78204	-3140.64868	2012.53308	1022.05219			 
67	0.660	1474.01563	1136.00500	1658.84912	1362.31140	1113.42102	1665.12024	1455.36438	1251.28027	1613.07458	1337.34534	1231.49109	1619.09937	1414.03748	1292.17188	1424.32556	1399.51746	1330.80176	1131.50586	1416.14551	1150.64258	1352.98425	1415.41211	1107.85034	1198.89551	1330.82361	1348.38782	1232.35559	1577.20422	1214.73633	1376.90076	1652.92078	1270.18994	1193.58130	1644.66895	1308.48633	1049.07593	1664.09631	1295.87598	935.05255	1635.37549	1250.36267	804.66980	1665.71436	1302.86682	812.92389	1661.70837	1276.52258	729.97394	1263.57068	1208.82751	1385.37488	1150.49707	1255.63098	1190.39307	1136.21387	1245.69556	1063.27100	1112.87439	1171.38770	963.07672	1147.14453	1051.97888	892.15619	1102.69824	1085.63135	875.64392	1111.48022	1019.29181	823.68280	1500.13330	1152.23132	923.21118	1281.75549	1162.06567	919.17102	1461.98413	1342.19458	938.62762	1317.69653	1346.93469	946.21405	1565.46643	1113.00269	610.11530	1551.35852	1088.27612	480.91510	1560.91565	1098.12378	292.78091	1520.57898	1060.79260	74.10553	1464.26233	1096.16138	41.49739	1529.57434	912.81769	55.45220	1238.59888	1289.80200	598.98676	1264.75952	1325.49854	440.77213	1261.92651	1447.24341	311.79523	1307.53308	1561.86487	137.99400	1355.34680	1622.23413	128.14088	1319.88171	1455.10986	42.44790	1383.78564	1127.38232	1698.56885	-3101.90918	1973.21838	1023.42065	-3140.75098	2012.56128	1022.04602			 
68	0.670	1477.20374	1125.69958	1659.31616	1365.41321	1103.47986	1665.55151	1459.14648	1240.99866	1613.59058	1341.03821	1221.76697	1619.41309	1418.00867	1281.75208	1424.70020	1401.76904	1320.01599	1131.66687	1419.31653	1140.53308	1353.48267	1418.20935	1097.11731	1199.56116	1334.79187	1338.34448	1232.22742	1580.76941	1204.27759	1376.22778	1656.22473	1257.67163	1192.25745	1648.26208	1294.97278	1047.38318	1668.02466	1281.34436	933.63959	1639.11096	1234.56116	803.53601	1669.49634	1286.95105	811.29028	1665.92786	1259.77966	728.86652	1266.96313	1199.55164	1385.94812	1154.25342	1247.35559	1190.67529	1139.77356	1237.70288	1063.56335	1115.63940	1164.13062	962.75970	1148.89148	1045.36353	890.55908	1104.37573	1079.35339	874.83148	1112.72253	1013.40485	822.32483	1501.76758	1140.51746	923.28845	1283.56396	1150.68982	919.00983	1463.72656	1330.56458	939.21545	1319.14758	1335.37817	945.57843	1568.75818	1102.22888	611.40118	1552.69336	1076.69006	482.58563	1563.20398	1088.44629	294.26688	1521.29553	1058.17737	74.29887	1465.26270	1094.82544	42.40536	1528.47473	910.50537	50.85108	1240.26208	1275.92297	598.05176	1265.16248	1311.51660	439.89996	1263.01501	1436.94897	314.31793	1307.97424	1556.09448	143.45581	1356.28040	1616.06226	136.12012	1320.13794	1454.05835	42.56120	1386.72498	1117.48364	1699.01990	-3101.86743	1973.13562	1023.34204	-3140.71606	2012.57776	1022.01672			 
69	0.680	1480.45862	1115.35583	1659.75085	1368.50952	1093.72852	1665.91638	1462.98560	1230.72424	1614.11780	1344.84229	1212.10974	1619.96326	1421.72327	1271.33362	1425.07080	1403.83923	1309.26038	1131.93164	1422.49683	1130.38391	1354.11987	1420.94702	1086.32617	1200.43774	1338.45020	1328.15735	1232.41223	1584.15356	1193.89319	1375.85828	1659.48303	1245.03833	1191.26685	1651.79260	1281.18445	1045.99365	1671.48914	1266.29883	932.27759	1643.07886	1218.26758	802.81018	1673.54919	1270.78674	810.10773	1670.35718	1242.72095	728.21570	1270.15210	1190.02441	1386.97437	1158.21960	1239.19336	1191.25464	1143.38428	1229.68555	1064.33240	1118.41992	1157.10645	962.89014	1150.54602	1039.05676	889.18896	1106.22791	1073.50232	873.83063	1113.79492	1008.01129	820.77039	1503.31482	1128.91809	923.85815	1285.68274	1139.02966	919.44098	1465.18945	1319.10620	940.11890	1320.52441	1323.69775	945.29694	1572.18713	1092.36938	612.76819	1553.85022	1065.55298	484.17761	1566.04150	1079.09924	295.30209	1521.25171	1056.47363	74.60937	1465.40076	1093.80444	42.90330	1528.10022	908.60358	48.03450	1241.72546	1261.42053	597.37842	1265.46448	1295.91626	439.14035	1263.75854	1425.73083	317.43036	1308.75012	1549.05273	149.72096	1357.81384	1608.18982	144.91908	1320.04248	1452.98010	42.86948	1389.98364	1107.29248	1699.60205	-3101.83716	1973.04773	1023.32739	-3140.42651	2012.64832	1022.04260			 
70	0.690	1483.80334	1105.02563	1660.22791	1371.83789	1083.83325	1666.55273	1466.77917	1220.40381	1614.56641	1348.54089	1202.34558	1620.54492	1425.47766	1261.35303	1425.53870	1405.95496	1298.63892	1132.33838	1425.72290	1120.06653	1354.94055	1423.69324	1075.57751	1201.40308	1341.76465	1317.90979	1232.84131	1587.41418	1183.58215	1375.75635	1662.69177	1232.38257	1190.66479	1655.31409	1267.22314	1044.96960	1675.45569	1251.19116	931.73102	1647.15149	1201.63013	802.46600	1677.56873	1254.15918	809.27502	1674.68787	1225.10400	727.74432	1273.30664	1180.35364	1388.02734	1162.19250	1231.01184	1192.14343	1146.98865	1221.63220	1065.47070	1121.35547	1150.30237	963.33710	1152.59705	1033.36804	887.86383	1108.21179	1068.17236	873.21527	1114.86804	1003.29730	819.62933	1505.24548	1117.48022	925.19379	1287.91577	1127.58875	919.76373	1466.51221	1307.77478	941.16821	1321.80737	1312.03345	945.39703	1574.21484	1082.63647	613.84589	1554.89307	1054.99976	484.80133	1568.91626	1070.43518	295.50546	1520.79187	1055.01306	74.66072	1465.55005	1093.33569	43.57715	1527.87109	907.35083	46.24701	1242.91052	1246.06494	596.68958	1264.98889	1279.19727	438.06003	1264.56470	1412.66101	320.32907	1309.88562	1540.37292	156.30922	1360.00818	1598.35840	154.21989	1320.41248	1451.66394	42.92614	1393.36096	1097.21155	1700.23950	-3101.97314	1973.10669	1023.73846	-3140.57056	2012.54932	1022.06342			 
71	0.700	1487.18079	1094.74329	1660.77148	1375.17542	1074.10596	1667.23267	1470.53564	1210.10974	1615.05237	1352.30212	1192.66553	1621.28381	1429.04492	1251.51526	1425.91406	1408.11743	1287.98230	1132.86719	1428.69202	1109.94421	1355.67749	1426.26538	1064.91125	1202.42871	1344.78430	1307.60632	1233.49573	1590.52380	1173.34460	1375.84473	1665.67932	1219.76746	1190.26257	1658.86841	1253.05981	1044.28857	1679.20496	1235.64075	931.37653	1651.27734	1184.58813	802.54303	1681.72021	1237.31848	808.89349	1679.30615	1207.23975	727.81952	1276.47559	1170.50623	1389.25208	1166.11548	1222.80176	1193.28064	1150.50769	1213.67468	1066.89233	1124.24231	1143.79321	964.05463	1154.36157	1027.88330	886.64252	1110.41260	1063.13525	872.36017	1116.00366	999.05646	818.28772	1507.29858	1106.28564	926.68353	1290.41675	1116.54053	920.36176	1467.77673	1296.68787	942.22601	1323.17017	1300.36841	945.77441	1575.36462	1072.50525	614.46796	1555.81274	1045.34546	484.39963	1570.60876	1063.21179	294.90717	1520.66821	1053.68347	74.92222	1465.73462	1092.86719	43.91407	1527.22498	906.23840	44.84826	1243.77698	1230.22461	596.07739	1264.09558	1261.37183	437.02200	1265.35266	1398.20471	323.01306	1311.20483	1530.02563	162.81413	1362.86011	1586.61157	163.83670	1320.88232	1450.17786	42.86614	1396.78796	1087.30286	1700.90125	-3101.79956	1973.16907	1023.76550	-3140.66650	2012.64124	1022.07513			 
72	0.710	1490.54675	1084.40295	1661.30200	1378.46777	1064.23364	1668.05310	1474.39978	1199.87830	1615.69617	1355.92932	1182.86536	1622.08362	1432.49902	1241.65259	1426.36340	1410.40149	1277.35632	1133.40247	1431.80688	1099.74060	1356.66089	1428.71301	1054.35583	1203.39880	1347.45471	1297.30969	1234.28320	1593.61829	1163.18494	1376.23035	1668.64539	1207.24377	1190.22461	1662.50110	1238.70410	1043.90588	1682.96667	1219.81311	931.30383	1655.39502	1167.24927	803.06879	1685.83130	1219.95825	808.87775	1683.72131	1188.87537	727.99170	1279.78870	1160.61694	1390.39075	1169.67261	1214.41748	1194.66956	1153.91724	1205.86487	1068.60352	1127.12109	1137.39893	964.94214	1156.39282	1022.80023	885.51672	1112.54749	1058.79016	871.99261	1117.24707	995.07568	816.93622	1509.75049	1095.38452	928.33813	1292.96484	1104.78662	921.44348	1469.20703	1285.91821	943.40570	1324.52563	1288.86304	946.32599	1576.72668	1062.47888	614.37402	1556.92981	1036.70886	483.36676	1571.31799	1057.20032	294.06140	1520.44763	1052.43726	74.71491	1465.74097	1092.56543	43.98171	1526.14246	904.80432	43.59034	1244.58777	1213.60205	595.11584	1263.27087	1242.34412	435.70795	1266.10547	1382.74329	325.84192	1312.56030	1518.39673	169.27596	1365.95764	1572.81311	173.48795	1321.69922	1448.61450	42.95267	1400.30103	1077.50793	1701.63037	-3101.86035	1973.17542	1023.31616	-3140.60303	2012.56641	1021.99921			 
73	0.720	1493.84485	1074.12244	1661.77930	1381.78943	1054.45581	1668.79614	1478.07959	1189.69763	1616.32092	1359.61670	1173.21277	1623.03687	1435.75366	1231.66675	1426.83386	1412.71106	1266.80847	1133.96570	1434.67896	1089.56628	1357.51782	1431.05835	1043.89197	1204.32312	1349.80591	1287.08240	1235.17688	1596.64966	1153.00610	1376.77771	1671.40698	1194.90222	1190.34497	1666.07959	1224.29883	1043.76343	1686.59473	1203.72217	931.39471	1659.55396	1149.54053	803.96014	1690.03088	1202.37537	809.25824	1688.09155	1170.26672	728.73578	1282.88574	1150.80762	1391.66846	1172.91882	1206.03906	1196.32605	1157.23999	1197.98914	1070.33801	1129.83740	1131.17249	965.80072	1158.23645	1017.85767	884.41711	1114.55005	1054.58630	871.32690	1118.59351	991.63037	815.74316	1512.44299	1084.72253	929.92450	1295.87842	1093.75476	922.29327	1470.49158	1274.73120	944.40662	1325.94495	1277.59058	946.93658	1577.74121	1052.69641	614.29150	1558.18347	1029.11377	482.24719	1571.60645	1052.48083	293.60208	1520.19043	1051.79053	74.52945	1465.72876	1092.39246	44.06416	1525.88892	903.89764	42.64236	1245.17981	1196.18176	593.94647	1262.64600	1223.39490	434.91415	1267.00537	1366.34900	328.59515	1313.74963	1505.65100	175.66130	1368.79456	1557.70020	183.12558	1322.73865	1446.95166	43.34748	1403.69250	1067.69629	1702.28320	-3101.84521	1973.16333	1023.24908	-3140.75269	2012.60364	1022.03723			 
